# xmcd
#
# Track frame offsets: 
#        150
#        16742
#        31570
#        43075
#        55050
#        68237
#        83550
#        99807
#        111742
#        130272
#
# Disc length: 1926 seconds
#
# Revision: 2
# Processed by: cddbd v1.5.2PL0 Copyright (c) Steve Scherf et al.
# Submitted via: ExactAudioCopy v0.95b4
#
DISCID=7407840a
DTITLE=Kenny Rogers - Love Will Turn You Around
DYEAR=1982
DGENRE=Country
TTITLE0=Love Will Turn You Around
TTITLE1=A Love Song
TTITLE2=Fightin' Fire With Fire
TTITLE3=Maybe You Should Know
TTITLE4=Somewhere Between Lovers And Friends
TTITLE5=Take This Heart
TTITLE6=If You Can Lie A Little Bit
TTITLE7=I'll Take Care Of You
TTITLE8=The Fool In Me
TTITLE9=I Want A Son
EXTD=
EXTT0=
EXTT1=
EXTT2=
EXTT3=
EXTT4=
EXTT5=
EXTT6=
EXTT7=
EXTT8=
EXTT9=
PLAYORDER=
